arm26_optimize_states
version=1
nRows=17
nColumns=17
inDegrees=yes

# SIMM Motion File Header:
name arm26_optimize_states
datacolumns 17
datarows 17
otherdata 1
range 0.00000000 0.00393267
endheader
time	r_shoulder_elev	r_elbow_flex	r_shoulder_elev_u	r_elbow_flex_u	TRIlong.activation	TRIlong.fiber_length	TRIlat.activation	TRIlat.fiber_length	TRImed.activation	TRImed.fiber_length	BIClong.activation	BIClong.fiber_length	BICshort.activation	BICshort.fiber_length	BRA.activation	BRA.fiber_length
      0.00000000	      0.00000000	      0.00000000	      0.00000000	      0.00000000	      0.05000000	      0.10000000	      0.05000000	      0.10000000	      0.05000000	      0.10000000	      0.05000000	      0.10000000	      0.05000000	      0.10000000	      0.05000000	      0.10000000
      0.00001359	     -0.00000139	     -0.00000393	     -0.20404653	     -0.48414990	      0.04999219	      0.11171234	      0.04999219	      0.09999555	      0.04999219	      0.09999555	      0.04999219	      0.10664017	      0.04999219	      0.11117550	      0.04999219	      0.09998512
      0.00003175	     -0.00000747	     -0.00001381	     -0.46081846	     -0.52388861	      0.04998175	      0.12108279	      0.04998175	      0.09998961	      0.04998175	      0.09998961	      0.04998175	      0.11387731	      0.04998175	      0.12156689	      0.04998175	      0.09996528
      0.00005585	     -0.00002217	     -0.00002215	     -0.74892193	     -0.11855998	      0.04996790	      0.12790221	      0.04996790	      0.09998173	      0.04996790	      0.09998173	      0.04996790	      0.12137951	      0.04996790	      0.13062105	      0.04996790	      0.09993900
      0.00007995	     -0.00004304	     -0.00001844	     -0.97260959	      0.43143063	      0.04995406	      0.13143044	      0.04995406	      0.09997384	      0.04995406	      0.09997384	      0.04995406	      0.12709630	      0.04995406	      0.13636113	      0.04995406	      0.09991277
      0.00011023	     -0.00007576	      0.00000468	     -1.17523932	      1.07649044	      0.04993667	      0.13358875	      0.04993667	      0.09996394	      0.04993667	      0.09996394	      0.04993667	      0.13239949	      0.04993667	      0.14072623	      0.04993667	      0.09987991
      0.00014051	     -0.00011355	      0.00004533	     -1.31202025	      1.58425323	      0.04991930	      0.13455057	      0.04991930	      0.09995403	      0.04991930	      0.09995403	      0.04991930	      0.13614684	      0.04991930	      0.14320240	      0.04991930	      0.09984715
      0.00018384	     -0.00017325	      0.00012544	     -1.43202754	      2.07043643	      0.04989445	      0.13511040	      0.04989445	      0.09993986	      0.04989445	      0.09993986	      0.04989445	      0.13962602	      0.04989445	      0.14499396	      0.04989445	      0.09980043
      0.00022717	     -0.00023688	      0.00022163	     -1.49854452	      2.34282920	      0.04986962	      0.13537420	      0.04986962	      0.09992569	      0.04986962	      0.09992569	      0.04986962	      0.14166106	      0.04986962	      0.14578111	      0.04986962	      0.09975391
      0.00027049	     -0.00030276	      0.00032685	     -1.53946433	      2.50064152	      0.04984480	      0.13552668	      0.04984480	      0.09991152	      0.04984480	      0.09991152	      0.04984480	      0.14283080	      0.04984480	      0.14616997	      0.04984480	      0.09970757
      0.00037011	     -0.00045922	      0.00058645	     -1.59669305	      2.68667397	      0.04978781	      0.13570104	      0.04978781	      0.09987894	      0.04978781	      0.09987894	      0.04978781	      0.14396458	      0.04978781	      0.14658633	      0.04978781	      0.09960178
      0.00046972	     -0.00062034	      0.00085972	     -1.63674910	      2.79362712	      0.04973091	      0.13577324	      0.04973091	      0.09984637	      0.04973091	      0.09984637	      0.04973091	      0.14436700	      0.04973091	      0.14676029	      0.04973091	      0.09949698
      0.00068540	     -0.00098127	      0.00148112	     -1.70848855	      2.96182522	      0.04960803	      0.13582631	      0.04960803	      0.09977587	      0.04960803	      0.09977587	      0.04960803	      0.14464035	      0.04960803	      0.14688857	      0.04960803	      0.09927338
      0.00090108	     -0.00135695	      0.00213599	     -1.77484406	      3.10994996	      0.04948556	      0.13585284	      0.04948556	      0.09970539	      0.04948556	      0.09970539	      0.04948556	      0.14470055	      0.04948556	      0.14692708	      0.04948556	      0.09905416
      0.00127643	     -0.00204436	      0.00335107	     -1.88746718	      3.36418781	      0.04927343	      0.13588459	      0.04927343	      0.09958278	      0.04927343	      0.09958278	      0.04927343	      0.14474161	      0.04927343	      0.14696633	      0.04927343	      0.09868263
      0.00208556	     -0.00366786	      0.00629530	     -2.12439551	      3.91394702	      0.04882040	      0.13593053	      0.04882040	      0.09931871	      0.04882040	      0.09931871	      0.04882040	      0.14479129	      0.04882040	      0.14701960	      0.04882040	      0.09792157
      0.00393267	     -0.00807899	      0.01469466	     -2.64880305	      5.18368722	      0.04780762	      0.13599630	      0.04780762	      0.09871705	      0.04780762	      0.09871705	      0.04780762	      0.14485636	      0.04780762	      0.14709345	      0.04780762	      0.09635845
